Coordinates
version=1
nRows=17
nColumns=36
inDegrees=yes

Units are S.I. units (second, meters, Newtons, ...)
If the header above contains a line with 'inDegrees', this indicates whether rotational values are in degrees (yes) or radians (no).

endheader
time	pelvis_tilt	pelvis_list	pelvis_rotation	pelvis_tx	pelvis_ty	pelvis_tz	hip_flexion_r	hip_adduction_r	hip_rotation_r	knee_angle_r	knee_angle_r_beta	ankle_angle_r	subtalar_angle_r	mtp_angle_r	hip_flexion_l	hip_adduction_l	hip_rotation_l	knee_angle_l	knee_angle_l_beta	ankle_angle_l	subtalar_angle_l	mtp_angle_l	lumbar_extension	lumbar_bending	lumbar_rotation	arm_flex_r	arm_add_r	arm_rot_r	elbow_flex_r	pro_sup_r	arm_flex_l	arm_add_l	arm_rot_l	elbow_flex_l	pro_sup_l
      2.93333330	    -15.31230398	     -0.40460741	      3.04890118	      0.15843110	      1.05022077	     -0.15288754	     23.35519778	    -11.53541339	     -7.02555045	     14.13258004	      0.24666005	    -16.37319597	     -6.75794387	     -7.49999987	     27.84533081	     -2.11600723	     -5.94653227	     19.58973965	      0.34190546	    -10.64945945	     -8.13724980	     -7.49999987	     -7.55520555	      4.29040150	     -0.47542685	    157.00558204	     -2.44198398	     46.44300094	     33.73667315	     69.23826999	    156.42040693	     -6.35018376	     55.90447210	     34.62346210	     62.24231642
      2.93750000	    -15.21752443	     -0.50782921	      2.77892752	      0.15886876	      1.05874579	     -0.15181755	     22.08448384	    -11.21290487	     -7.92312949	     11.65853392	      0.20347980	    -19.79306479	     -3.47547599	     -7.49999987	     26.70636338	     -2.70541863	     -6.91338974	     17.14663034	      0.29926516	    -15.01151173	     -6.67193460	     -7.49999987	     -7.33630768	      4.23816282	      0.05044191	    158.12410753	     -1.58031856	     46.67873587	     32.10586902	     68.10556983	    157.27525783	     -5.94586222	     55.12048457	     34.63396952	     62.27473304
      2.94166670	    -15.24435292	     -0.49044387	      2.65280854	      0.16775268	      1.06741676	     -0.14479229	     21.13759122	    -10.67732584	     -8.27078450	      9.63175927	      0.16810591	    -24.10375898	     -1.77517843	     -7.49999987	     25.47866526	     -3.27864344	     -7.79693470	     14.59472829	      0.25472606	    -19.89774923	     -4.64190942	     -7.49999987	     -6.77493136	      3.75478154	      0.61589260	    159.77260105	     -0.74990098	     48.31543068	     30.59761077	     65.55569560	    157.69026466	     -5.77817035	     54.37592226	     34.85429986	     62.63486057
      2.94583330	    -15.10955421	     -0.57825752	      2.68456632	      0.17577197	      1.09053323	     -0.14513464	     19.75575817	    -10.24864567	     -9.12575158	      6.91528817	      0.12069455	    -28.67841837	     -0.04008262	     -7.49999987	     23.53566867	     -3.48278326	     -8.03158944	     11.25511986	      0.19643890	    -24.19427693	     -2.41598181	     -7.49999987	     -6.40112508	      3.40234083	      1.04529182	    160.65674309	     -0.62716536	     48.24211123	     30.18915940	     65.39149796	    158.41458678	     -5.07314076	     54.29272775	     34.62711041	     62.82540203
      2.95000000	    -15.12108019	     -0.81830717	      2.29152827	      0.17047067	      1.10280405	     -0.14222379	     18.94640228	     -9.49197526	     -9.33681076	      4.24336393	      0.07406067	    -34.45437872	      1.53773192	     -7.49999987	     22.19759403	     -3.91365304	     -8.40224862	      8.15488007	      0.14232951	    -28.91965525	     -0.03813370	     -7.49999987	     -6.09375161	      3.22731213	      1.63752268	    161.59749465	     -0.19625808	     49.32162360	     29.31508354	     64.71696647	    159.47464570	     -4.17223548	     54.82965719	     32.48639735	     63.09015564
      2.95416670	    -15.35765149	     -0.73907250	      2.00753739	      0.17418213	      1.11423091	     -0.14615475	     18.23756237	     -9.24136307	    -10.09757702	      1.77060846	      0.03090295	    -39.15112068	      2.15078439	     -7.49999987	     21.18937212	     -3.77158163	     -9.05998531	      5.46750179	      0.09542591	    -32.96341069	      2.40358640	     -7.49999987	     -5.64546563	      3.01140323	      2.21710549	    162.56009439	      0.27263452	     49.66380129	     27.79489625	     64.25693863	    160.43894474	     -2.94384448	     54.88058236	     30.12642257	     62.99408234
      2.95833330	    -15.60715601	     -0.49906694	      1.39720814	      0.17683228	      1.13359588	     -0.14319608	     18.17024850	     -9.04559107	    -11.55529816	      0.40832029	      0.00712653	    -41.49226438	      2.84919872	     -7.49999987	     20.60647418	     -3.68590387	     -9.25402084	      3.05499713	      0.05331976	    -37.09337823	      5.41830316	     -7.49999987	     -5.22982054	      2.65012926	      3.08139729	    162.93304346	      0.11171102	     50.42299178	     28.10982814	     63.84962041	    161.22036317	     -2.52372816	     55.60938243	     29.53597672	     63.19261937
      2.96250000	    -16.09968610	     -0.46082761	      0.93112008	      0.17443860	      1.14359271	     -0.14290146	     19.08457234	     -8.99730265	    -12.72449303	      0.18558959	      0.00323915	    -41.69911979	      3.03611072	     -7.49999987	     20.86698027	     -4.02355457	     -9.03919609	      1.15432924	      0.02014685	    -41.27378011	      7.93793134	     -7.49999987	     -4.87811741	      2.64345498	      3.87662745	    163.78575539	      0.18569990	     50.31140201	     28.03786887	     63.84425879	    162.10631017	     -2.30040673	     55.63952412	     29.20566477	     63.27716516
      2.96666670	    -16.51047062	     -0.61919266	      0.97631438	      0.17242852	      1.16270492	     -0.14399340	     19.73388902	     -8.84673525	    -14.50108832	      0.12977013	      0.00226492	    -41.44161147	      3.90883904	     -7.49999987	     21.55662760	     -4.34740082	     -9.46565510	      0.41602529	      0.00726101	    -43.60686466	     10.39254005	     -7.49999987	     -4.67244652	      2.88065540	      4.59934349	    165.29734215	     -0.08992098	     51.88716168	     27.37980939	     63.96044369	    163.56203591	     -1.73786756	     57.24552236	     28.18943556	     63.91154356
      2.97083330	    -16.64541658	     -0.92215265	      1.29751528	      0.17122884	      1.17357961	     -0.14346745	     19.83703865	     -8.53020822	    -15.82671260	      0.11413588	      0.00199205	    -40.63383152	      4.31459153	     -7.49999987	     22.28517358	     -4.74662975	    -10.39542088	      0.24741662	      0.00431823	    -45.59821960	     12.12656296	     -7.49999987	     -4.53169153	      3.20572741	      4.69894176	    166.37901958	      0.40216454	     52.15880059	     26.47951197	     63.95671361	    164.30674286	     -1.43758795	     57.86816472	     28.04003626	     64.13974167
      2.97500000	    -16.66282358	     -1.27992939	      1.80876336	      0.16970071	      1.18707720	     -0.14610641	     19.68312700	     -8.18345937	    -16.61720514	      0.10865148	      0.00189633	    -39.01416131	      4.64403887	     -7.49999987	     22.69845731	     -5.12338240	    -11.22725436	      0.18991837	      0.00331470	    -46.19681544	     12.97466616	     -7.49999987	     -4.47672683	      3.62456345	      4.64522456	    167.28424081	      0.78038456	     52.36517876	     26.01675259	     63.86931940	    164.71631075	     -1.28718964	     58.66297413	     28.05424326	     64.36595561
      2.97916670	    -16.74273521	     -1.58138745	      1.78834056	      0.16957148	      1.19356723	     -0.14575738	     19.59993551	     -7.62635173	    -17.49525009	      0.10918260	      0.00190560	    -37.19141896	      4.89694205	     -7.49999987	     23.03582036	     -5.70185765	    -11.81411038	      0.16469750	      0.00287451	    -46.10351207	     13.66943885	     -7.49999987	     -4.28430783	      3.90559866	      4.82240062	    168.47485235	      1.26452708	     53.47099268	     25.02300955	     63.49914927	    165.81293406	     -1.10553533	     61.60889520	     27.40365127	     64.99352188
      2.98333330	    -16.77707464	     -1.73384125	      1.76628562	      0.17726010	      1.20375611	     -0.14822651	     19.09446714	     -7.36967589	    -17.75785246	      0.11457690	      0.00199974	    -35.81701984	      5.06797568	     -7.49999987	     22.80160860	     -5.94936218	    -12.94251773	      0.15491750	      0.00270382	    -44.36347554	     13.23388315	     -7.49999987	     -3.66945304	      4.01231085	      4.74659042	    168.81219763	      1.73515104	     53.47897147	     24.33416281	     63.25887348	    166.02318159	     -0.55470590	     62.54811379	     26.54818678	     65.07523893
      2.98750000	    -16.81465539	     -1.74379559	      1.83805898	      0.17704094	      1.21951627	     -0.14781993	     18.72252285	     -7.21732435	    -17.65537303	      0.11761802	      0.00205282	    -34.88207117	      5.58626864	     -7.49999987	     22.62668065	     -6.07760577	    -14.36288763	      0.14950524	      0.00260936	    -42.96010169	     12.22053526	     -7.49999987	     -3.17418440	      3.96478893	      4.41014810	    169.19958300	      2.43990830	     53.91193775	     23.11452914	     63.08423372	    166.32631087	     -0.15534972	     63.97280296	     25.99070504	     65.26270115
      2.99166670	    -16.70194367	     -1.64431099	      2.30707774	      0.17660442	      1.23728274	     -0.14964281	     18.19161964	     -7.25720063	    -17.98446742	      0.12427960	      0.00216909	    -35.04879500	      5.94493239	     -7.49999987	     22.33320587	     -5.86803823	    -16.19535898	      0.14742521	      0.00257306	    -42.99249162	     10.68541281	     -7.49999987	     -2.91662981	      3.84003274	      3.70066663	    169.26150980	      2.89934876	     53.94443540	     21.82349205	     62.96901917	    166.32894385	     -0.02178063	     64.90987287	     25.93988596	     65.37465014
      2.99583330	    -16.68548389	     -1.62231138	      2.72592848	      0.17692325	      1.24307548	     -0.14924582	     17.90197983	     -7.23535530	    -18.66402698	      0.12470851	      0.00217657	    -35.69124270	      5.67813103	     -7.49999987	     22.28053757	     -5.71896322	    -18.11072389	      0.14568737	      0.00254272	    -42.75287871	      9.21947220	     -7.49999987	     -2.55995447	      3.68956477	      3.24788829	    169.41314352	      3.22137804	     54.05343734	     21.14728400	     62.85665270	    166.50530471	      0.17984020	     65.39204971	     25.59868457	     65.32018689
      3.00000000	    -16.64487667	     -1.76246512	      3.29662843	      0.17756171	      1.24730195	     -0.15095919	     17.47947195	     -7.05755048	    -19.28917278	      0.13545497	      0.00236414	    -36.92422832	      3.99240435	     -7.49999987	     22.28700938	     -5.61421107	    -19.36672330	      0.15301631	      0.00267064	    -42.80752411	      7.99463943	     -7.49999987	     -2.41511322	      3.68719165	      2.67313280	    170.31624455	      3.50832326	     56.93765362	     19.32054970	     62.67732023	    167.70395936	      0.68752514	     68.77604800	     24.40895268	     65.46695142
